<svg width="24pt" height="24pt" viewBox="0 0 139 139" version="1.1" xmlns="http://www.w3.org/2000/svg">
    <path fill="#ffffff" fill-opacity="0" d=" M 0.00 0.00 L 139.00 0.00 L 139.00 139.00 L 0.00 139.00 L 0.00 0.00 Z" />
    <path fill="#777777" d=" M 24.57 25.59 C 35.24 14.42 50.25 7.61 65.67 6.83 C 65.67 12.39 65.69 17.95 65.66 23.51 C 53.47 24.46 41.77 30.46 34.05 39.97 C 28.12 47.11 24.62 56.10 23.85 65.33 C 18.27 65.35 12.70 65.36 7.12 65.32 C 7.97 50.56 14.16 36.12 24.57 25.59 Z" />
    <path fill="#777777" d=" M 72.31 6.87 C 87.98 7.55 103.21 14.66 113.93 26.09 C 124.06 36.58 130.07 50.80 130.88 65.33 C 125.31 65.35 119.73 65.35 114.16 65.33 C 113.21 53.04 107.11 41.23 97.46 33.52 C 90.36 27.70 81.46 24.28 72.34 23.52 C 72.31 17.97 72.35 12.42 72.31 6.87 Z" />
    <path fill="#AAAAAA" d=" M 42.42 39.04 C 49.19 33.05 57.97 29.34 67.03 28.95 C 77.40 28.36 87.84 32.14 95.58 39.04 C 93.07 41.57 90.55 44.10 88.02 46.61 C 77.50 37.36 60.52 37.36 50.00 46.61 C 47.46 44.10 44.93 41.58 42.42 39.04 Z" />
    <path fill="#AAAAAA" d=" M 39.35 42.08 C 41.90 44.60 44.49 47.09 46.94 49.70 C 37.65 60.19 37.73 77.19 46.95 87.70 C 44.41 90.21 41.94 92.79 39.32 95.22 C 33.03 88.02 29.25 78.62 29.25 69.02 C 29.08 59.18 32.87 49.45 39.35 42.08 Z" />
    <path fill="#AAAAAA" d=" M 42.42 98.29 C 44.93 95.76 47.45 93.23 49.99 90.73 C 60.52 99.98 77.50 99.98 88.03 90.73 C 90.56 93.23 93.07 95.76 95.58 98.28 C 88.34 104.75 78.72 108.49 68.99 108.43 C 59.27 108.49 49.67 104.73 42.42 98.29 Z" />
    <path fill="#777777" d=" M 7.13 72.02 C 12.70 71.98 18.27 72.00 23.85 72.01 C 24.78 84.23 30.83 95.97 40.38 103.69 C 47.50 109.60 56.48 113.05 65.68 113.85 C 65.66 119.42 65.70 124.99 65.65 130.56 C 50.65 129.70 35.99 123.30 25.40 112.59 C 14.51 101.98 7.97 87.18 7.13 72.02 Z" />
    <path fill="#777777" d=" M 114.15 72.02 C 119.73 71.99 125.31 71.99 130.89 72.02 C 130.04 86.95 123.71 101.54 113.10 112.10 C 102.47 123.10 87.61 129.68 72.37 130.57 C 72.28 125.00 72.35 119.44 72.33 113.87 C 84.62 112.85 96.43 106.81 104.15 97.14 C 109.97 90.05 113.40 81.14 114.15 72.02 Z" />
</svg>